<?xml version="1.0" encoding="iso-8859-1"?>
<!-- Generator: Adobe Illustrator 19.0.0, SVG Export Plug-In . SVG Version: 6.00 Build 0)  -->
<svg version="1.1" id="Capa_1" xmlns="http://www.w3.org/2000/svg" xmlns:xlink="http://www.w3.org/1999/xlink" x="0px" y="0px"
	 viewBox="0 0 512.001 512.001" style="enable-background:new 0 0 512.001 512.001;" xml:space="preserve">
<path style="fill:#DEECF1;" d="M510.417,490.291l-240.999-482C266.877,3.209,261.682,0,256.001,0c0,0,0,0-0.001,0
	c-5.681,0-10.874,3.211-13.415,8.291l-241.002,482c-2.742,5.484-1.869,12.086,2.203,16.67c4.072,4.586,10.525,6.23,16.295,4.152
	l152.123-54.766l1.107-0.398l73.925,53.223c5.235,3.77,12.294,3.77,17.528,0l73.92-53.223l1.109,0.4l152.125,54.764
	c1.661,0.598,3.377,0.887,5.078,0.887c4.209,0,8.316-1.773,11.217-5.039C512.286,502.377,513.159,495.775,510.417,490.291z"/>
<path style="fill:#A2D8F4;" d="M510.417,490.291l-240.999-482C266.877,3.209,261.682,0,256.001,0c0,0,0,0-0.001,0h-0.001v511.999
	c3.074,0,6.148-0.942,8.766-2.827l73.92-53.223l1.109,0.4l152.125,54.764c1.661,0.598,3.377,0.887,5.078,0.887
	c4.209,0,8.316-1.773,11.217-5.039C512.286,502.377,513.159,495.775,510.417,490.291z"/>
<path style="fill:#7CC8F0;" d="M256,0l-83.796,456.348l1.107-0.398l73.925,53.223c5.235,3.77,12.294,3.77,17.528,0l73.92-53.223
	l1.109,0.4L256,0L256,0z"/>
<path style="fill:#4BB9EC;" d="M256,0l-0.001,0.003v511.996c3.074,0,6.148-0.942,8.766-2.827l73.92-53.223l1.109,0.4L256,0z"/>
<g>
</g>
<g>
</g>
<g>
</g>
<g>
</g>
<g>
</g>
<g>
</g>
<g>
</g>
<g>
</g>
<g>
</g>
<g>
</g>
<g>
</g>
<g>
</g>
<g>
</g>
<g>
</g>
<g>
</g>
</svg>
