<svg id="Capa_1" enable-background="new 0 0 512.988 512.988" height="512" viewBox="0 0 512.988 512.988" width="512" xmlns="http://www.w3.org/2000/svg"><g><g id="Solar_Energy_2_"><path d="m316.997 436.494 15-120h149l15 120z" fill="#76e2f8"/><path d="m420.997 482.494v-46h-30v46h-30v30h90v-30z" fill="#463f3f"/><path d="m494.238 301.494h-175.483l-18.747 150h212.98zm-26.483 30 3.75 30h-130.017l3.75-30zm-133.767 90 3.75-30h137.517l3.75 30z" fill="#c7cfe1"/><path d="m270.988 482.494v-106h-30v106h-30v30h90v-30z" fill="#5b5555"/><path d="m270.988 376.494h-15v136h45v-30h-30z" fill="#463f3f"/><path d="m16.988 436.494 15-120h149l15 120z" fill="#76e2f8"/><path d="m120.988 482.494v-46h-30v46h-30v30h90v-30z" fill="#5b5555"/><path d="m194.23 301.494h-175.483l-18.747 150h212.98zm-26.483 30 3.75 30h-130.017l3.75-30zm-133.767 90 3.75-30h137.517l3.75 30z" fill="#dfe7f4"/><g><path d="m318.531 65.165 22.31-22.31-21.213-21.213-22.31 22.31c-7.869-5.217-16.768-9-26.329-10.948v-32.51h-30v32.509c-9.562 1.949-18.46 5.731-26.33 10.948l-22.311-22.31-21.213 21.213 22.311 22.31c-5.218 7.869-9 16.768-10.948 26.329h-31.509v30h31.509c1.949 9.561 5.731 18.46 10.948 26.329l-22.311 22.31 21.213 21.213 22.311-22.31c7.869 5.218 16.768 9 26.33 10.948v31.509h30v-31.509c9.562-1.949 18.46-5.731 26.33-10.948l22.31 22.31 21.213-21.213-22.31-22.31c5.218-7.869 9-16.768 10.948-26.329h31.509v-30h-31.509c-1.95-9.56-5.732-18.459-10.949-26.328z" fill="#ffda79"/><path d="m255.988.494v211h15v-31.509c9.562-1.949 18.46-5.731 26.33-10.948l22.31 22.31 21.213-21.213-22.31-22.31c5.218-7.869 9-16.768 10.948-26.329h31.509v-30h-31.509c-1.949-9.561-5.731-18.46-10.948-26.33l22.31-22.31-21.213-21.213-22.31 22.31c-7.869-5.217-16.768-9-26.329-10.948v-32.51z" fill="#fdbf4c"/><path d="m45.521 203.994h120.934v30h-120.934z" fill="#ffda79" transform="matrix(.496 -.868 .868 .496 -136.737 202.364)"/><path d="m390.988 158.527h30v120.934h-30z" fill="#fdbf4c" transform="matrix(.868 -.496 .496 .868 -55.16 230.285)"/></g></g><path d="m135.988 376.494 22.5-120h195l22.5 120z" fill="#9bfcff"/><path d="m255.988 376.494h120l-22.5-120h-97.5z" fill="#76e2f8"/><path d="m365.937 241.494h-219.897l-28.125 150h276.147zm-24.897 30 5.625 30h-181.353l5.625-30zm-186.978 90 5.625-30h192.603l5.625 30z" fill="#f0f7ff"/><path d="m365.937 241.494h-109.949v30h85.052l5.625 30h-90.677v30h96.302l5.625 30h-101.927v30h138.074z" fill="#dfe7f4"/></g></svg>